# Blender v3.0.1 OBJ File: ''
# www.blender.org
mtllib grass.mtl
o Plane
v 0.000000 0.000000 -0.920059
v -0.000000 0.000000 0.920059
v 0.000000 1.840119 -0.920059
v 0.000000 1.840119 0.920059
vt 0.000000 0.000000
vt 1.000000 0.000000
vt 1.000000 1.000000
vt 0.000000 1.000000
vn -1.0000 0.0000 -0.0000
usemtl Material.001
s off
f 1/1/1 2/2/1 4/3/1 3/4/1
o Plane.001
v -1.000000 0.000000 0.000000
v 1.000000 -0.000000 0.000000
v -1.000000 2.000000 -0.000000
v 1.000000 2.000000 -0.000000
vt 0.000000 0.000000
vt 1.000000 0.000000
vt 1.000000 1.000000
vt 0.000000 1.000000
vn 0.0000 0.0000 1.0000
usemtl Material.001
s off
f 5/5/2 6/6/2 8/7/2 7/8/2
o Plane.002
v -0.677627 0.000000 0.677627
v 0.677626 -0.000000 -0.677626
v -0.677626 1.916617 0.677626
v 0.677627 1.916617 -0.677627
vt 0.000000 0.000000
vt 1.000000 0.000000
vt 1.000000 1.000000
vt 0.000000 1.000000
vn 0.7071 0.0000 0.7071
usemtl Material.001
s off
f 9/9/3 10/10/3 12/11/3 11/12/3
o Plane.003
v 0.707107 0.000000 0.707107
v -0.707107 -0.000000 -0.707107
v 0.707107 2.000000 0.707107
v -0.707107 2.000000 -0.707107
vt 0.000000 0.000000
vt 1.000000 0.000000
vt 1.000000 1.000000
vt 0.000000 1.000000
vn 0.7071 0.0000 -0.7071
usemtl Material.001
s off
f 13/13/4 14/14/4 16/15/4 15/16/4
